<svg xmlns="http://www.w3.org/2000/svg" viewBox="0 0 200 200">
  <defs>
    <linearGradient id="grad1" x1="0%" y1="0%" x2="100%" y2="100%">
      <stop offset="0%" style="stop-color:#c45a1e"/>
      <stop offset="100%" style="stop-color:#e88a4a"/>
    </linearGradient>
    <linearGradient id="grad2" x1="0%" y1="100%" x2="100%" y2="0%">
      <stop offset="0%" style="stop-color:#a04515"/>
      <stop offset="100%" style="stop-color:#d9692a"/>
    </linearGradient>
  </defs>
  
  <!-- Forma principal - C grande con curva superior -->
  <path d="M165 95
           C165 50 135 20 95 25
           C75 28 60 45 55 65
           L25 155
           C22 165 30 170 40 165
           L60 145
           C65 140 75 135 80 130
           L100 115
           C110 107 115 105 125 105
           C150 105 165 85 165 95Z" 
        fill="url(#grad1)"/>
  
  <!-- Curva superior derecha -->
  <path d="M162 85
           C175 55 165 25 130 20
           C110 17 90 25 80 45
           C100 30 125 35 140 50
           C155 65 160 75 162 85Z"
        fill="url(#grad2)"/>
  
  <!-- Líneas de la espiral/alas -->
  <path d="M30 150 L85 110 L82 105 L25 142Z" fill="url(#grad2)" opacity="0.95"/>
  <path d="M35 158 L88 115 L85 110 L28 150Z" fill="url(#grad2)" opacity="0.9"/>
  <path d="M42 165 L92 120 L88 115 L35 158Z" fill="url(#grad2)" opacity="0.85"/>
  <path d="M52 170 L96 125 L92 120 L45 163Z" fill="url(#grad2)" opacity="0.8"/>
  <path d="M62 173 L100 130 L96 125 L55 168Z" fill="url(#grad2)" opacity="0.75"/>
  <path d="M74 175 L105 138 L100 132 L67 170Z" fill="url(#grad2)" opacity="0.7"/>
  <path d="M86 175 L110 145 L105 140 L80 172Z" fill="url(#grad2)" opacity="0.65"/>
  <path d="M98 173 L115 152 L110 147 L93 170Z" fill="url(#grad2)" opacity="0.6"/>
  <path d="M110 168 L120 158 L115 153 L105 165Z" fill="url(#grad2)" opacity="0.55"/>
  
  <!-- Círculo central -->
  <circle cx="115" cy="75" r="28" fill="url(#grad1)"/>
  <circle cx="115" cy="75" r="24" fill="url(#grad2)"/>
</svg>